<svg xmlns="http://www.w3.org/2000/svg" xmlns:xlink="http://www.w3.org/1999/xlink" width="500" zoomAndPan="magnify" viewBox="0 0 375 374.999991" height="500" preserveAspectRatio="xMidYMid meet" version="1.0"><defs><g/><clipPath id="187466c459"><path d="M 156.601562 111.890625 L 218.101562 111.890625 L 218.101562 177.753906 L 156.601562 177.753906 Z M 156.601562 111.890625 " clip-rule="nonzero"/></clipPath><clipPath id="d956d72a5f"><path d="M 217.171875 173.222656 C 213.46875 170.011719 209.242188 167.390625 204.644531 165.5 L 204.644531 152.359375 C 206.175781 152.132812 207.351562 150.808594 207.351562 149.207031 C 207.351562 147.445312 205.929688 146.015625 204.175781 146.015625 C 202.421875 146.015625 201 147.445312 201 149.207031 C 201 150.808594 202.175781 152.132812 203.703125 152.359375 L 203.703125 165.125 C 200.96875 164.070312 198.105469 163.273438 195.148438 162.761719 L 195.148438 121.675781 L 184.992188 111.941406 L 184.992188 162.15625 C 184.167969 162.199219 183.355469 162.261719 182.542969 162.347656 L 182.542969 136.042969 L 175.113281 141.054688 L 175.113281 163.761719 C 173.15625 164.304688 171.253906 164.980469 169.410156 165.769531 L 169.410156 160.367188 L 173.34375 160.367188 L 168.9375 146.015625 L 164.535156 160.367188 L 168.46875 160.367188 L 168.46875 166.1875 C 164.484375 168.007812 160.800781 170.382812 157.527344 173.222656 C 156.3125 174.273438 156.359375 176.175781 157.621094 177.171875 C 158.582031 177.925781 159.9375 177.886719 160.863281 177.085938 C 167.972656 170.933594 177.230469 167.210938 187.351562 167.210938 C 197.46875 167.210938 206.726562 170.933594 213.839844 177.085938 C 214.761719 177.886719 216.117188 177.925781 217.078125 177.171875 C 218.339844 176.175781 218.386719 174.273438 217.171875 173.222656 Z M 217.171875 173.222656 " clip-rule="nonzero"/></clipPath><clipPath id="c989c85703"><path d="M 217.171875 173.222656 C 213.46875 170.011719 209.242188 167.390625 204.644531 165.5 L 204.644531 152.359375 C 206.175781 152.132812 207.351562 150.808594 207.351562 149.207031 C 207.351562 147.445312 205.929688 146.015625 204.175781 146.015625 C 202.421875 146.015625 201 147.445312 201 149.207031 C 201 150.808594 202.175781 152.132812 203.703125 152.359375 L 203.703125 165.125 C 200.96875 164.070312 198.105469 163.273438 195.148438 162.761719 L 195.148438 121.675781 L 184.992188 111.941406 L 184.992188 162.15625 C 184.167969 162.199219 183.355469 162.261719 182.542969 162.347656 L 182.542969 136.042969 L 175.113281 141.054688 L 175.113281 163.761719 C 173.15625 164.304688 171.253906 164.980469 169.410156 165.769531 L 169.410156 160.367188 L 173.34375 160.367188 L 168.9375 146.015625 L 164.535156 160.367188 L 168.46875 160.367188 L 168.46875 166.1875 C 164.484375 168.007812 160.800781 170.382812 157.527344 173.222656 C 156.3125 174.273438 156.359375 176.175781 157.621094 177.171875 C 158.582031 177.925781 159.9375 177.886719 160.863281 177.085938 C 167.972656 170.933594 177.230469 167.210938 187.351562 167.210938 C 197.46875 167.210938 206.726562 170.933594 213.839844 177.085938 C 214.761719 177.886719 216.117188 177.925781 217.078125 177.171875 C 218.339844 176.175781 218.386719 174.273438 217.171875 173.222656 " clip-rule="nonzero"/></clipPath><clipPath id="c5a1507486"><path d="M 218.289062 109.46875 L 153.710938 112.046875 L 156.410156 180.398438 L 220.988281 177.820312 Z M 218.289062 109.46875 " clip-rule="nonzero"/></clipPath><linearGradient x1="-0.911652" gradientTransform="matrix(1.880578, 47.637782, -47.399878, 1.890016, 186.52481, 154.245996)" y1="0" x2="0.519065" gradientUnits="userSpaceOnUse" y2="0" id="237aeba7a3"><stop stop-opacity="1" stop-color="rgb(15.699768%, 66.699219%, 88.198853%)" offset="0"/><stop stop-opacity="1" stop-color="rgb(15.699768%, 66.699219%, 88.198853%)" offset="0.5"/><stop stop-opacity="1" stop-color="rgb(15.699768%, 66.699219%, 88.198853%)" offset="0.625"/><stop stop-opacity="1" stop-color="rgb(15.699768%, 66.699219%, 88.198853%)" offset="0.632813"/><stop stop-opacity="1" stop-color="rgb(15.602112%, 66.499329%, 88.101196%)" offset="0.636719"/><stop stop-opacity="1" stop-color="rgb(15.504456%, 66.299438%, 88.00354%)" offset="0.640625"/><stop stop-opacity="1" stop-color="rgb(15.284729%, 65.982056%, 87.814331%)" offset="0.644531"/><stop stop-opacity="1" stop-color="rgb(15.066528%, 65.666199%, 87.625122%)" offset="0.648438"/><stop stop-opacity="1" stop-color="rgb(14.855957%, 65.455627%, 87.361145%)" offset="0.652344"/><stop stop-opacity="1" stop-color="rgb(14.645386%, 65.246582%, 87.098694%)" offset="0.65625"/><stop stop-opacity="1" stop-color="rgb(14.456177%, 64.855957%, 86.782837%)" offset="0.660156"/><stop stop-opacity="1" stop-color="rgb(14.266968%, 64.466858%, 86.46698%)" offset="0.664063"/><stop stop-opacity="1" stop-color="rgb(13.983154%, 64.183044%, 86.277771%)" offset="0.667969"/><stop stop-opacity="1" stop-color="rgb(13.699341%, 63.899231%, 86.088562%)" offset="0.671875"/><stop stop-opacity="1" stop-color="rgb(13.499451%, 63.60321%, 85.794067%)" offset="0.675781"/><stop stop-opacity="1" stop-color="rgb(13.299561%, 63.308716%, 85.499573%)" offset="0.679688"/><stop stop-opacity="1" stop-color="rgb(13.09967%, 62.939453%, 85.214233%)" offset="0.683594"/><stop stop-opacity="1" stop-color="rgb(12.89978%, 62.571716%, 84.93042%)" offset="0.6875"/><stop stop-opacity="1" stop-color="rgb(12.69989%, 62.361145%, 84.690857%)" offset="0.691406"/><stop stop-opacity="1" stop-color="rgb(12.5%, 62.150574%, 84.451294%)" offset="0.695313"/><stop stop-opacity="1" stop-color="rgb(12.348938%, 61.761475%, 84.262085%)" offset="0.699219"/><stop stop-opacity="1" stop-color="rgb(12.199402%, 61.372375%, 84.072876%)" offset="0.703125"/><stop stop-opacity="1" stop-color="rgb(11.895752%, 61.08551%, 83.786011%)" offset="0.707031"/><stop stop-opacity="1" stop-color="rgb(11.593628%, 60.798645%, 83.499146%)" offset="0.710938"/><stop stop-opacity="1" stop-color="rgb(11.404419%, 60.505676%, 83.206177%)" offset="0.714844"/><stop stop-opacity="1" stop-color="rgb(11.21521%, 60.214233%, 82.914734%)" offset="0.71875"/><stop stop-opacity="1" stop-color="rgb(11.024475%, 59.825134%, 82.745361%)" offset="0.722656"/><stop stop-opacity="1" stop-color="rgb(10.835266%, 59.436035%, 82.575989%)" offset="0.726563"/><stop stop-opacity="1" stop-color="rgb(10.595703%, 59.196472%, 82.287598%)" offset="0.730469"/><stop stop-opacity="1" stop-color="rgb(10.35614%, 58.956909%, 81.999207%)" offset="0.734375"/><stop stop-opacity="1" stop-color="rgb(10.166931%, 58.566284%, 81.687927%)" offset="0.738281"/><stop stop-opacity="1" stop-color="rgb(9.977722%, 58.177185%, 81.378174%)" offset="0.742188"/><stop stop-opacity="1" stop-color="rgb(9.788513%, 57.887268%, 81.187439%)" offset="0.746094"/><stop stop-opacity="1" stop-color="rgb(9.599304%, 57.598877%, 80.99823%)" offset="0.75"/><stop stop-opacity="1" stop-color="rgb(9.298706%, 57.359314%, 80.809021%)" offset="0.753906"/><stop stop-opacity="1" stop-color="rgb(8.999634%, 57.119751%, 80.619812%)" offset="0.757812"/><stop stop-opacity="1" stop-color="rgb(8.799744%, 56.730652%, 80.308533%)" offset="0.761719"/><stop stop-opacity="1" stop-color="rgb(8.599854%, 56.341553%, 79.998779%)" offset="0.765625"/><stop stop-opacity="1" stop-color="rgb(8.398438%, 56.12793%, 79.707336%)" offset="0.769531"/><stop stop-opacity="1" stop-color="rgb(8.198547%, 55.915833%, 79.415894%)" offset="0.773437"/><stop stop-opacity="1" stop-color="rgb(7.998657%, 55.499268%, 79.199219%)" offset="0.777344"/><stop stop-opacity="1" stop-color="rgb(7.798767%, 55.082703%, 78.982544%)" offset="0.78125"/><stop stop-opacity="1" stop-color="rgb(7.649231%, 54.79126%, 78.691101%)" offset="0.785156"/><stop stop-opacity="1" stop-color="rgb(7.499695%, 54.499817%, 78.399658%)" offset="0.789062"/><stop stop-opacity="1" stop-color="rgb(7.21283%, 54.212952%, 78.112793%)" offset="0.792969"/><stop stop-opacity="1" stop-color="rgb(6.925964%, 53.926086%, 77.825928%)" offset="0.796875"/><stop stop-opacity="1" stop-color="rgb(6.735229%, 53.611755%, 77.655029%)" offset="0.800781"/><stop stop-opacity="1" stop-color="rgb(6.546021%, 53.29895%, 77.484131%)" offset="0.804687"/><stop stop-opacity="1" stop-color="rgb(6.356812%, 53.033447%, 77.325439%)" offset="0.808594"/><stop stop-opacity="1" stop-color="rgb(6.167603%, 52.767944%, 77.168274%)" offset="0.8125"/><stop stop-opacity="1" stop-color="rgb(5.92804%, 52.377319%, 76.834106%)" offset="0.816406"/><stop stop-opacity="1" stop-color="rgb(5.688477%, 51.98822%, 76.499939%)" offset="0.820312"/><stop stop-opacity="1" stop-color="rgb(5.499268%, 51.799011%, 76.203918%)" offset="0.824219"/><stop stop-opacity="1" stop-color="rgb(5.310059%, 51.609802%, 75.909424%)" offset="0.828125"/><stop stop-opacity="1" stop-color="rgb(5.119324%, 51.219177%, 75.720215%)" offset="0.832031"/><stop stop-opacity="1" stop-color="rgb(4.930115%, 50.830078%, 75.531006%)" offset="0.835937"/><stop stop-opacity="1" stop-color="rgb(4.740906%, 50.514221%, 75.215149%)" offset="0.839844"/><stop stop-opacity="1" stop-color="rgb(4.551697%, 50.19989%, 74.899292%)" offset="0.84375"/><stop stop-opacity="1" stop-color="rgb(4.225159%, 49.935913%, 74.635315%)" offset="0.847656"/><stop stop-opacity="1" stop-color="rgb(3.898621%, 49.673462%, 74.372864%)" offset="0.851562"/><stop stop-opacity="1" stop-color="rgb(3.69873%, 49.234009%, 74.133301%)" offset="0.855469"/><stop stop-opacity="1" stop-color="rgb(3.49884%, 48.794556%, 73.893738%)" offset="0.859375"/><stop stop-opacity="1" stop-color="rgb(3.29895%, 48.603821%, 73.704529%)" offset="0.863281"/><stop stop-opacity="1" stop-color="rgb(3.09906%, 48.414612%, 73.51532%)" offset="0.867187"/><stop stop-opacity="1" stop-color="rgb(2.89917%, 48.045349%, 73.207092%)" offset="0.871094"/><stop stop-opacity="1" stop-color="rgb(2.69928%, 47.677612%, 72.898865%)" offset="0.875"/><stop stop-opacity="1" stop-color="rgb(2.548218%, 47.387695%, 72.645569%)" offset="0.878906"/><stop stop-opacity="1" stop-color="rgb(2.398682%, 47.099304%, 72.392273%)" offset="0.882812"/><stop stop-opacity="1" stop-color="rgb(2.137756%, 46.838379%, 72.235107%)" offset="0.886719"/><stop stop-opacity="1" stop-color="rgb(1.878357%, 46.578979%, 72.077942%)" offset="0.890625"/><stop stop-opacity="1" stop-color="rgb(1.672363%, 46.17157%, 71.737671%)" offset="0.894531"/><stop stop-opacity="1" stop-color="rgb(1.46637%, 45.765686%, 71.398926%)" offset="0.898438"/><stop stop-opacity="1" stop-color="rgb(1.243591%, 45.542908%, 71.109009%)" offset="0.902344"/><stop stop-opacity="1" stop-color="rgb(1.020813%, 45.320129%, 70.820618%)" offset="0.90625"/><stop stop-opacity="1" stop-color="rgb(0.830078%, 44.93103%, 70.631409%)" offset="0.910156"/><stop stop-opacity="1" stop-color="rgb(0.640869%, 44.541931%, 70.4422%)" offset="0.914062"/><stop stop-opacity="1" stop-color="rgb(0.587463%, 44.351196%, 70.251465%)" offset="0.921875"/><stop stop-opacity="1" stop-color="rgb(0.724792%, 43.830872%, 69.93103%)" offset="0.925781"/><stop stop-opacity="1" stop-color="rgb(0.914001%, 43.499756%, 69.799805%)" offset="0.929688"/><stop stop-opacity="1" stop-color="rgb(1.055908%, 43.299866%, 69.598389%)" offset="0.933594"/><stop stop-opacity="1" stop-color="rgb(1.199341%, 43.099976%, 69.398499%)" offset="0.9375"/><stop stop-opacity="1" stop-color="rgb(1.399231%, 42.89856%, 69.311523%)" offset="0.941406"/><stop stop-opacity="1" stop-color="rgb(1.599121%, 42.698669%, 69.226074%)" offset="0.945312"/><stop stop-opacity="1" stop-color="rgb(1.799011%, 42.549133%, 69.111633%)" offset="0.949219"/><stop stop-opacity="1" stop-color="rgb(1.998901%, 42.399597%, 68.998718%)" offset="0.953125"/><stop stop-opacity="1" stop-color="rgb(2.198792%, 42.199707%, 68.798828%)" offset="0.957031"/><stop stop-opacity="1" stop-color="rgb(2.398682%, 41.999817%, 68.598938%)" offset="0.960938"/><stop stop-opacity="1" stop-color="rgb(2.43988%, 41.743469%, 68.544006%)" offset="0.964844"/><stop stop-opacity="1" stop-color="rgb(2.481079%, 41.488647%, 68.489075%)" offset="0.96875"/><stop stop-opacity="1" stop-color="rgb(2.633667%, 41.299438%, 68.344116%)" offset="0.976562"/><stop stop-opacity="1" stop-color="rgb(2.94342%, 40.870667%, 67.999268%)" offset="0.980469"/><stop stop-opacity="1" stop-color="rgb(3.09906%, 40.631104%, 67.799377%)" offset="0.984375"/><stop stop-opacity="1" stop-color="rgb(3.29895%, 40.441895%, 67.744446%)" offset="0.988281"/><stop stop-opacity="1" stop-color="rgb(3.49884%, 40.252686%, 67.689514%)" offset="0.992188"/><stop stop-opacity="1" stop-color="rgb(3.69873%, 40.061951%, 67.530823%)" offset="0.996094"/><stop stop-opacity="1" stop-color="rgb(3.898621%, 39.872742%, 67.373657%)" offset="1"/></linearGradient><clipPath id="01f664446e"><path d="M 165.675781 173 L 209 173 L 209 185.097656 L 165.675781 185.097656 Z M 165.675781 173 " clip-rule="nonzero"/></clipPath><clipPath id="c4439defcb"><path d="M 207.785156 179.757812 C 202.046875 175.5625 194.988281 173.089844 187.351562 173.089844 C 179.714844 173.089844 172.652344 175.5625 166.917969 179.757812 C 165.355469 180.898438 165.316406 183.222656 166.835938 184.417969 C 167.855469 185.222656 169.28125 185.253906 170.324219 184.488281 C 175.105469 180.992188 180.988281 178.929688 187.351562 178.929688 C 193.710938 178.929688 199.59375 180.992188 204.375 184.488281 C 205.421875 185.253906 206.847656 185.222656 207.867188 184.417969 C 209.386719 183.222656 209.34375 180.898438 207.785156 179.757812 Z M 207.785156 179.757812 " clip-rule="nonzero"/></clipPath><clipPath id="bc3c0d9db2"><path d="M 207.785156 179.757812 C 202.046875 175.5625 194.988281 173.089844 187.351562 173.089844 C 179.714844 173.089844 172.652344 175.5625 166.917969 179.757812 C 165.355469 180.898438 165.316406 183.222656 166.835938 184.417969 C 167.855469 185.222656 169.28125 185.253906 170.324219 184.488281 C 175.105469 180.992188 180.988281 178.929688 187.351562 178.929688 C 193.710938 178.929688 199.59375 180.992188 204.375 184.488281 C 205.421875 185.253906 206.847656 185.222656 207.867188 184.417969 C 209.386719 183.222656 209.34375 180.898438 207.785156 179.757812 " clip-rule="nonzero"/></clipPath><clipPath id="8ac44f0adb"><path d="M 209.316406 171.335938 L 164.835938 173.109375 L 165.382812 187.007812 L 209.867188 185.234375 Z M 209.316406 171.335938 " clip-rule="nonzero"/></clipPath><linearGradient x1="0.377525" gradientTransform="matrix(1.880578, 47.637782, -47.399878, 1.890016, 186.25006, 154.257186)" y1="0" x2="0.665442" gradientUnits="userSpaceOnUse" y2="0" id="9404528a71"><stop stop-opacity="1" stop-color="rgb(1.199341%, 45.498657%, 71.354675%)" offset="0"/><stop stop-opacity="1" stop-color="rgb(1.199341%, 45.481873%, 71.176147%)" offset="0.015625"/><stop stop-opacity="1" stop-color="rgb(1.179504%, 45.281982%, 70.979309%)" offset="0.03125"/><stop stop-opacity="1" stop-color="rgb(0.979614%, 45.08667%, 70.779419%)" offset="0.046875"/><stop stop-opacity="1" stop-color="rgb(0.793457%, 44.880676%, 70.593262%)" offset="0.0625"/><stop stop-opacity="1" stop-color="rgb(0.593567%, 44.493103%, 70.393372%)" offset="0.078125"/><stop stop-opacity="1" stop-color="rgb(0.401306%, 44.297791%, 70.199585%)" offset="0.09375"/><stop stop-opacity="1" stop-color="rgb(0.502014%, 44.197083%, 70.199585%)" offset="0.109375"/><stop stop-opacity="1" stop-color="rgb(0.700378%, 43.997192%, 70.198059%)" offset="0.125"/><stop stop-opacity="1" stop-color="rgb(0.799561%, 43.798828%, 70.098877%)" offset="0.140625"/><stop stop-opacity="1" stop-color="rgb(0.799561%, 43.600464%, 69.900513%)" offset="0.15625"/><stop stop-opacity="1" stop-color="rgb(0.990295%, 43.307495%, 69.607544%)" offset="0.1875"/><stop stop-opacity="1" stop-color="rgb(1.281738%, 43.107605%, 69.406128%)" offset="0.203125"/><stop stop-opacity="1" stop-color="rgb(1.480103%, 43.099976%, 69.398499%)" offset="0.21875"/><stop stop-opacity="1" stop-color="rgb(1.58844%, 42.910767%, 69.20929%)" offset="0.25"/><stop stop-opacity="1" stop-color="rgb(1.786804%, 42.56897%, 69.009399%)" offset="0.28125"/><stop stop-opacity="1" stop-color="rgb(2.166748%, 42.227173%, 68.817139%)" offset="0.3125"/><stop stop-opacity="1" stop-color="rgb(2.378845%, 41.938782%, 68.617249%)" offset="0.328125"/><stop stop-opacity="1" stop-color="rgb(2.398682%, 41.740417%, 68.598938%)" offset="0.34375"/><stop stop-opacity="1" stop-color="rgb(2.456665%, 41.542053%, 68.519592%)" offset="0.359375"/><stop stop-opacity="1" stop-color="rgb(2.590942%, 41.342163%, 68.34259%)" offset="0.375"/><stop stop-opacity="1" stop-color="rgb(2.758789%, 41.143799%, 68.144226%)" offset="0.390625"/><stop stop-opacity="1" stop-color="rgb(2.952576%, 40.945435%, 67.945862%)" offset="0.40625"/><stop stop-opacity="1" stop-color="rgb(3.074646%, 40.652466%, 67.822266%)" offset="0.4375"/><stop stop-opacity="1" stop-color="rgb(3.167725%, 40.361023%, 67.747498%)" offset="0.453125"/><stop stop-opacity="1" stop-color="rgb(3.335571%, 40.162659%, 67.622375%)" offset="0.46875"/><stop stop-opacity="1" stop-color="rgb(3.533936%, 39.964294%, 67.523193%)" offset="0.484375"/><stop stop-opacity="1" stop-color="rgb(3.7323%, 39.76593%, 67.498779%)" offset="0.5"/><stop stop-opacity="1" stop-color="rgb(3.930664%, 39.633179%, 67.433167%)" offset="0.515625"/><stop stop-opacity="1" stop-color="rgb(4.130554%, 39.599609%, 67.268372%)" offset="0.53125"/><stop stop-opacity="1" stop-color="rgb(4.264832%, 39.439392%, 67.134094%)" offset="0.5625"/><stop stop-opacity="1" stop-color="rgb(4.356384%, 39.183044%, 67.041016%)" offset="0.578125"/><stop stop-opacity="1" stop-color="rgb(4.512024%, 38.986206%, 66.885376%)" offset="0.59375"/><stop stop-opacity="1" stop-color="rgb(4.711914%, 38.786316%, 66.687012%)" offset="0.609375"/><stop stop-opacity="1" stop-color="rgb(4.910278%, 38.587952%, 66.488647%)" offset="0.625"/><stop stop-opacity="1" stop-color="rgb(5.053711%, 38.389587%, 66.343689%)" offset="0.640625"/><stop stop-opacity="1" stop-color="rgb(5.099487%, 38.189697%, 66.299438%)" offset="0.65625"/><stop stop-opacity="1" stop-color="rgb(5.247498%, 37.896729%, 66.151428%)" offset="0.6875"/><stop stop-opacity="1" stop-color="rgb(5.493164%, 37.615967%, 65.951538%)" offset="0.703125"/><stop stop-opacity="1" stop-color="rgb(5.690002%, 37.45575%, 65.899658%)" offset="0.71875"/><stop stop-opacity="1" stop-color="rgb(5.844116%, 37.19635%, 65.7547%)" offset="0.75"/><stop stop-opacity="1" stop-color="rgb(5.941772%, 36.911011%, 65.55481%)" offset="0.765625"/><stop stop-opacity="1" stop-color="rgb(6.085205%, 36.712646%, 65.499878%)" offset="0.78125"/><stop stop-opacity="1" stop-color="rgb(6.378174%, 36.418152%, 65.362549%)" offset="0.8125"/><stop stop-opacity="1" stop-color="rgb(6.768799%, 36.029053%, 65.029907%)" offset="0.875"/><stop stop-opacity="1" stop-color="rgb(7.063293%, 35.734558%, 64.733887%)" offset="0.890625"/><stop stop-opacity="1" stop-color="rgb(7.263184%, 35.536194%, 64.535522%)" offset="0.90625"/><stop stop-opacity="1" stop-color="rgb(7.43103%, 35.241699%, 64.367676%)" offset="0.9375"/><stop stop-opacity="1" stop-color="rgb(7.516479%, 34.94873%, 64.276123%)" offset="0.953125"/><stop stop-opacity="1" stop-color="rgb(7.608032%, 34.753418%, 64.152527%)" offset="0.96875"/><stop stop-opacity="1" stop-color="rgb(7.762146%, 34.555054%, 63.975525%)" offset="0.984375"/><stop stop-opacity="1" stop-color="rgb(7.9422%, 34.355164%, 63.899231%)" offset="1"/></linearGradient><clipPath id="0989bcb814"><path d="M 175.25 184.339844 L 199.449219 184.339844 L 199.449219 192.699219 L 175.25 192.699219 Z M 175.25 184.339844 " clip-rule="nonzero"/></clipPath><clipPath id="6719aadb3a"><path d="M 197.703125 186.929688 C 194.582031 185.378906 191.066406 184.507812 187.351562 184.507812 C 183.632812 184.507812 180.117188 185.378906 176.996094 186.929688 C 175.015625 187.914062 174.726562 190.628906 176.464844 192 C 177.371094 192.710938 178.601562 192.84375 179.628906 192.328125 C 181.957031 191.171875 184.578125 190.519531 187.351562 190.519531 C 190.121094 190.519531 192.742188 191.171875 195.070312 192.328125 C 196.097656 192.84375 197.328125 192.710938 198.234375 192 C 199.972656 190.628906 199.683594 187.914062 197.703125 186.929688 Z M 197.703125 186.929688 " clip-rule="nonzero"/></clipPath><clipPath id="e17b08348a"><path d="M 197.703125 186.929688 C 194.582031 185.378906 191.066406 184.507812 187.351562 184.507812 C 183.632812 184.507812 180.117188 185.378906 176.996094 186.929688 C 175.015625 187.914062 174.726562 190.628906 176.464844 192 C 177.371094 192.710938 178.601562 192.84375 179.628906 192.328125 C 181.957031 191.171875 184.578125 190.519531 187.351562 190.519531 C 190.121094 190.519531 192.742188 191.171875 195.070312 192.328125 C 196.097656 192.84375 197.328125 192.710938 198.234375 192 C 199.972656 190.628906 199.683594 187.914062 197.703125 186.929688 " clip-rule="nonzero"/></clipPath><clipPath id="bc4e4ba6dd"><path d="M 199.933594 183.503906 L 174.398438 184.519531 L 174.765625 193.847656 L 200.300781 192.828125 Z M 199.933594 183.503906 " clip-rule="nonzero"/></clipPath><linearGradient x1="0.624798" gradientTransform="matrix(1.880578, 47.637782, -47.399878, 1.890016, 185.95358, 154.268796)" y1="0" x2="0.816717" gradientUnits="userSpaceOnUse" y2="0" id="483ad6b175"><stop stop-opacity="1" stop-color="rgb(7.099915%, 35.699463%, 64.698792%)" offset="0"/><stop stop-opacity="1" stop-color="rgb(7.099915%, 35.676575%, 64.698792%)" offset="0.03125"/><stop stop-opacity="1" stop-color="rgb(7.113647%, 35.461426%, 64.683533%)" offset="0.0625"/><stop stop-opacity="1" stop-color="rgb(7.321167%, 35.073853%, 64.483643%)" offset="0.125"/><stop stop-opacity="1" stop-color="rgb(7.655334%, 34.689331%, 64.291382%)" offset="0.15625"/><stop stop-opacity="1" stop-color="rgb(7.798767%, 34.498596%, 64.094543%)" offset="0.1875"/><stop stop-opacity="1" stop-color="rgb(7.99408%, 34.303284%, 63.900757%)" offset="0.21875"/><stop stop-opacity="1" stop-color="rgb(8.19397%, 34.008789%, 63.804626%)" offset="0.234375"/><stop stop-opacity="1" stop-color="rgb(8.198547%, 33.811951%, 63.612366%)" offset="0.25"/><stop stop-opacity="1" stop-color="rgb(8.389282%, 33.706665%, 63.505554%)" offset="0.28125"/><stop stop-opacity="1" stop-color="rgb(8.589172%, 33.517456%, 63.499451%)" offset="0.3125"/><stop stop-opacity="1" stop-color="rgb(8.778381%, 33.317566%, 63.320923%)" offset="0.34375"/><stop stop-opacity="1" stop-color="rgb(8.978271%, 33.122253%, 63.121033%)" offset="0.375"/><stop stop-opacity="1" stop-color="rgb(9.074402%, 32.847595%, 63.024902%)" offset="0.390625"/><stop stop-opacity="1" stop-color="rgb(9.246826%, 32.650757%, 62.850952%)" offset="0.40625"/><stop stop-opacity="1" stop-color="rgb(9.371948%, 32.525635%, 62.72583%)" offset="0.4375"/><stop stop-opacity="1" stop-color="rgb(9.558105%, 32.348633%, 62.579346%)" offset="0.5"/><stop stop-opacity="1" stop-color="rgb(9.757996%, 32.041931%, 62.42981%)" offset="0.53125"/><stop stop-opacity="1" stop-color="rgb(9.947205%, 31.692505%, 62.399292%)" offset="0.5625"/><stop stop-opacity="1" stop-color="rgb(10.147095%, 31.44989%, 62.254333%)" offset="0.59375"/><stop stop-opacity="1" stop-color="rgb(10.340881%, 31.256104%, 62.054443%)" offset="0.625"/><stop stop-opacity="1" stop-color="rgb(10.540771%, 31.056213%, 61.859131%)" offset="0.65625"/><stop stop-opacity="1" stop-color="rgb(10.731506%, 30.867004%, 61.659241%)" offset="0.6875"/><stop stop-opacity="1" stop-color="rgb(10.931396%, 30.53894%, 61.599731%)" offset="0.71875"/><stop stop-opacity="1" stop-color="rgb(11.123657%, 30.270386%, 61.473083%)" offset="0.75"/><stop stop-opacity="1" stop-color="rgb(11.325073%, 30.075073%, 61.273193%)" offset="0.78125"/><stop stop-opacity="1" stop-color="rgb(11.399841%, 29.875183%, 61.199951%)" offset="0.8125"/><stop stop-opacity="1" stop-color="rgb(11.509705%, 29.6875%, 61.088562%)" offset="0.84375"/><stop stop-opacity="1" stop-color="rgb(11.709595%, 29.476929%, 60.887146%)" offset="0.859375"/><stop stop-opacity="1" stop-color="rgb(11.799622%, 29.28009%, 60.798645%)" offset="0.875"/><stop stop-opacity="1" stop-color="rgb(11.904907%, 29.090881%, 60.691833%)" offset="0.90625"/><stop stop-opacity="1" stop-color="rgb(12.104797%, 28.898621%, 60.491943%)" offset="0.9375"/><stop stop-opacity="1" stop-color="rgb(12.348938%, 28.605652%, 60.307312%)" offset="1"/></linearGradient><clipPath id="abd418e678"><path d="M 182.308594 194 L 192.390625 194 L 192.390625 204.097656 L 182.308594 204.097656 Z M 182.308594 194 " clip-rule="nonzero"/></clipPath><clipPath id="2be560750f"><path d="M 187.351562 194.027344 C 184.597656 194.027344 182.367188 196.269531 182.367188 199.039062 C 182.367188 201.804688 184.597656 204.046875 187.351562 204.046875 C 190.101562 204.046875 192.335938 201.804688 192.335938 199.039062 C 192.335938 196.269531 190.101562 194.027344 187.351562 194.027344 Z M 187.351562 194.027344 " clip-rule="nonzero"/></clipPath><clipPath id="a826c5a3b9"><path d="M 187.351562 194.027344 C 184.597656 194.027344 182.367188 196.269531 182.367188 199.039062 C 182.367188 201.804688 184.597656 204.046875 187.351562 204.046875 C 190.101562 204.046875 192.335938 201.804688 192.335938 199.039062 C 192.335938 196.269531 190.101562 194.027344 187.351562 194.027344 " clip-rule="nonzero"/></clipPath><clipPath id="d87e74a277"><path d="M 192.320312 193.632812 L 181.96875 194.042969 L 182.382812 204.445312 L 192.730469 204.03125 Z M 192.320312 193.632812 " clip-rule="nonzero"/></clipPath><linearGradient x1="0.830312" gradientTransform="matrix(1.880578, 47.637782, -47.399878, 1.890016, 185.58328, 154.283626)" y1="0" x2="1.048625" gradientUnits="userSpaceOnUse" y2="0" id="1fda4805fa"><stop stop-opacity="1" stop-color="rgb(12.918091%, 27.784729%, 59.599304%)" offset="0"/><stop stop-opacity="1" stop-color="rgb(13.113403%, 27.636719%, 59.594727%)" offset="0.0625"/><stop stop-opacity="1" stop-color="rgb(13.409424%, 27.389526%, 59.489441%)" offset="0.078125"/><stop stop-opacity="1" stop-color="rgb(13.604736%, 27.18811%, 59.294128%)" offset="0.09375"/><stop stop-opacity="1" stop-color="rgb(13.705444%, 26.893616%, 59.199524%)" offset="0.125"/><stop stop-opacity="1" stop-color="rgb(13.905334%, 26.6922%, 59.191895%)" offset="0.15625"/><stop stop-opacity="1" stop-color="rgb(14.100647%, 26.489258%, 58.992004%)" offset="0.1875"/><stop stop-opacity="1" stop-color="rgb(14.204407%, 26.194763%, 58.799744%)" offset="0.203125"/><stop stop-opacity="1" stop-color="rgb(14.401245%, 25.996399%, 58.796692%)" offset="0.21875"/><stop stop-opacity="1" stop-color="rgb(14.498901%, 25.898743%, 58.692932%)" offset="0.234375"/><stop stop-opacity="1" stop-color="rgb(14.503479%, 25.894165%, 58.496094%)" offset="0.25"/><stop stop-opacity="1" stop-color="rgb(14.607239%, 25.790405%, 58.399963%)" offset="0.265625"/><stop stop-opacity="1" stop-color="rgb(14.802551%, 25.588989%, 58.39386%)" offset="0.28125"/><stop stop-opacity="1" stop-color="rgb(14.898682%, 25.294495%, 58.19397%)" offset="0.3125"/><stop stop-opacity="1" stop-color="rgb(14.99939%, 25.099182%, 57.998657%)" offset="0.328125"/><stop stop-opacity="1" stop-color="rgb(15.19928%, 25.097656%, 57.998657%)" offset="0.34375"/><stop stop-opacity="1" stop-color="rgb(15.299988%, 24.996948%, 57.998657%)" offset="0.359375"/><stop stop-opacity="1" stop-color="rgb(15.301514%, 24.797058%, 57.997131%)" offset="0.375"/><stop stop-opacity="1" stop-color="rgb(15.402222%, 24.595642%, 57.894897%)" offset="0.390625"/><stop stop-opacity="1" stop-color="rgb(15.600586%, 24.397278%, 57.696533%)" offset="0.40625"/><stop stop-opacity="1" stop-color="rgb(15.699768%, 24.299622%, 57.598877%)" offset="0.4375"/><stop stop-opacity="1" stop-color="rgb(15.797424%, 24.201965%, 57.525635%)" offset="0.453125"/><stop stop-opacity="1" stop-color="rgb(15.994263%, 24.003601%, 57.377625%)" offset="0.46875"/><stop stop-opacity="1" stop-color="rgb(16.096497%, 23.802185%, 57.301331%)" offset="0.484375"/><stop stop-opacity="1" stop-color="rgb(16.099548%, 23.600769%, 57.299805%)" offset="0.5"/><stop stop-opacity="1" stop-color="rgb(16.19873%, 23.500061%, 57.299805%)" offset="0.515625"/><stop stop-opacity="1" stop-color="rgb(16.398621%, 23.498535%, 57.299805%)" offset="0.53125"/><stop stop-opacity="1" stop-color="rgb(16.499329%, 23.303223%, 57.104492%)" offset="0.5625"/><stop stop-opacity="1" stop-color="rgb(16.593933%, 23.008728%, 56.903076%)" offset="0.578125"/><stop stop-opacity="1" stop-color="rgb(16.789246%, 22.808838%, 56.898499%)" offset="0.59375"/><stop stop-opacity="1" stop-color="rgb(16.894531%, 22.703552%, 56.802368%)" offset="0.609375"/><stop stop-opacity="1" stop-color="rgb(16.899109%, 22.698975%, 56.607056%)" offset="0.625"/><stop stop-opacity="1" stop-color="rgb(16.995239%, 22.625732%, 56.50177%)" offset="0.640625"/><stop stop-opacity="1" stop-color="rgb(17.193604%, 22.477722%, 56.498718%)" offset="0.65625"/><stop stop-opacity="1" stop-color="rgb(17.295837%, 22.209167%, 56.306458%)" offset="0.6875"/><stop stop-opacity="1" stop-color="rgb(17.443848%, 22.006226%, 56.106567%)" offset="0.71875"/><stop stop-opacity="1" stop-color="rgb(17.593384%, 21.80481%, 56.098938%)" offset="0.75"/><stop stop-opacity="1" stop-color="rgb(17.698669%, 21.505737%, 55.999756%)" offset="0.875"/><stop stop-opacity="1" stop-color="rgb(17.897034%, 21.30127%, 55.801392%)" offset="1"/></linearGradient></defs><g clip-path="url(#187466c459)"><g clip-path="url(#d956d72a5f)"><g clip-path="url(#c989c85703)"><g clip-path="url(#c5a1507486)"><path fill="url(#237aeba7a3)" d="M 218.003906 109.492188 L 154.007812 112.046875 L 156.695312 180.203125 L 220.695312 177.648438 Z M 218.003906 109.492188 " fill-rule="nonzero"/></g></g></g></g><g clip-path="url(#01f664446e)"><g clip-path="url(#c4439defcb)"><g clip-path="url(#bc3c0d9db2)"><g clip-path="url(#8ac44f0adb)"><path fill="url(#9404528a71)" d="M 208.957031 171.363281 L 165.199219 173.109375 L 165.742188 186.824219 L 209.5 185.082031 Z M 208.957031 171.363281 " fill-rule="nonzero"/></g></g></g></g><g clip-path="url(#0989bcb814)"><g clip-path="url(#6719aadb3a)"><g clip-path="url(#e17b08348a)"><g clip-path="url(#bc4e4ba6dd)"><path fill="url(#483ad6b175)" d="M 199.410156 183.542969 L 174.929688 184.519531 L 175.289062 193.660156 L 199.773438 192.6875 Z M 199.410156 183.542969 " fill-rule="nonzero"/></g></g></g></g><g clip-path="url(#abd418e678)"><g clip-path="url(#2be560750f)"><g clip-path="url(#a826c5a3b9)"><g clip-path="url(#d87e74a277)"><path fill="url(#1fda4805fa)" d="M 192.320312 193.632812 L 181.96875 194.042969 L 182.382812 204.445312 L 192.730469 204.03125 Z M 192.320312 193.632812 " fill-rule="nonzero"/></g></g></g></g><g fill="#272a76" fill-opacity="1"><g transform="translate(129.07421, 246.706856)"><g><path d="M 14.46875 -22.015625 C 12.375 -22.015625 10.75 -21.226562 9.59375 -19.65625 C 8.445312 -18.082031 7.875 -15.882812 7.875 -13.0625 C 7.875 -7.207031 10.070312 -4.28125 14.46875 -4.28125 C 16.3125 -4.28125 18.546875 -4.738281 21.171875 -5.65625 L 21.171875 -0.984375 C 19.015625 -0.0859375 16.609375 0.359375 13.953125 0.359375 C 10.128906 0.359375 7.203125 -0.796875 5.171875 -3.109375 C 3.148438 -5.429688 2.140625 -8.765625 2.140625 -13.109375 C 2.140625 -15.835938 2.632812 -18.226562 3.625 -20.28125 C 4.625 -22.34375 6.054688 -23.921875 7.921875 -25.015625 C 9.785156 -26.109375 11.96875 -26.65625 14.46875 -26.65625 C 17.019531 -26.65625 19.582031 -26.039062 22.15625 -24.8125 L 20.359375 -20.28125 C 19.378906 -20.75 18.390625 -21.15625 17.390625 -21.5 C 16.398438 -21.84375 15.425781 -22.015625 14.46875 -22.015625 Z M 14.46875 -22.015625 "/></g></g></g><g fill="#272a76" fill-opacity="1"><g transform="translate(155.106664, 246.706856)"><g><path d="M 8.875 -14.609375 L 10.671875 -14.609375 C 12.429688 -14.609375 13.726562 -14.898438 14.5625 -15.484375 C 15.40625 -16.078125 15.828125 -17.003906 15.828125 -18.265625 C 15.828125 -19.503906 15.398438 -20.390625 14.546875 -20.921875 C 13.691406 -21.453125 12.363281 -21.71875 10.5625 -21.71875 L 8.875 -21.71875 Z M 8.875 -10.078125 L 8.875 0 L 3.3125 0 L 3.3125 -26.28125 L 10.96875 -26.28125 C 14.539062 -26.28125 17.179688 -25.628906 18.890625 -24.328125 C 20.609375 -23.023438 21.46875 -21.050781 21.46875 -18.40625 C 21.46875 -16.863281 21.039062 -15.488281 20.1875 -14.28125 C 19.332031 -13.070312 18.128906 -12.128906 16.578125 -11.453125 C 20.523438 -5.546875 23.097656 -1.726562 24.296875 0 L 18.125 0 L 11.84375 -10.078125 Z M 8.875 -10.078125 "/></g></g></g><g fill="#272a76" fill-opacity="1"><g transform="translate(181.983865, 246.706856)"><g><path d="M 14.4375 0 L 8.109375 -20.609375 L 7.9375 -20.609375 C 8.164062 -16.421875 8.28125 -13.625 8.28125 -12.21875 L 8.28125 0 L 3.3125 0 L 3.3125 -26.28125 L 10.890625 -26.28125 L 17.109375 -6.1875 L 17.21875 -6.1875 L 23.8125 -26.28125 L 31.40625 -26.28125 L 31.40625 0 L 26.203125 0 L 26.203125 -12.4375 C 26.203125 -13.019531 26.210938 -13.695312 26.234375 -14.46875 C 26.253906 -15.238281 26.335938 -17.273438 26.484375 -20.578125 L 26.3125 -20.578125 L 19.53125 0 Z M 14.4375 0 "/></g></g></g><g fill="#272a76" fill-opacity="1"><g transform="translate(219.26761, 246.706856)"><g><path d="M 13.28125 -14.75 L 23.703125 -14.75 L 23.703125 -1.125 C 22.015625 -0.582031 20.425781 -0.203125 18.9375 0.015625 C 17.445312 0.242188 15.921875 0.359375 14.359375 0.359375 C 10.390625 0.359375 7.359375 -0.800781 5.265625 -3.125 C 3.179688 -5.457031 2.140625 -8.804688 2.140625 -13.171875 C 2.140625 -17.410156 3.351562 -20.71875 5.78125 -23.09375 C 8.207031 -25.46875 11.570312 -26.65625 15.875 -26.65625 C 18.570312 -26.65625 21.171875 -26.113281 23.671875 -25.03125 L 21.828125 -20.578125 C 19.910156 -21.535156 17.910156 -22.015625 15.828125 -22.015625 C 13.421875 -22.015625 11.492188 -21.207031 10.046875 -19.59375 C 8.597656 -17.976562 7.875 -15.800781 7.875 -13.0625 C 7.875 -10.21875 8.457031 -8.039062 9.625 -6.53125 C 10.789062 -5.03125 12.488281 -4.28125 14.71875 -4.28125 C 15.882812 -4.28125 17.066406 -4.398438 18.265625 -4.640625 L 18.265625 -10.125 L 13.28125 -10.125 Z M 13.28125 -14.75 "/></g></g></g><g fill="#272a76" fill-opacity="1"><g transform="translate(164.812547, 267.428548)"><g><path d="M 0.671875 0 L 0.671875 -4.9375 L 1.25 -4.9375 L 1.25 0 Z M 0.671875 0 "/></g></g></g><g fill="#272a76" fill-opacity="1"><g transform="translate(170.906937, 267.428548)"><g><path d="M 4.234375 0 L 3.5625 0 L 1.765625 -2.390625 L 1.25 -1.9375 L 1.25 0 L 0.671875 0 L 0.671875 -4.9375 L 1.25 -4.9375 L 1.25 -2.484375 L 3.484375 -4.9375 L 4.171875 -4.9375 L 2.1875 -2.78125 Z M 4.234375 0 "/></g></g></g><g fill="#272a76" fill-opacity="1"><g transform="translate(179.313699, 267.428548)"><g><path d="M 4.953125 -2.46875 C 4.953125 -1.675781 4.753906 -1.054688 4.359375 -0.609375 C 3.960938 -0.160156 3.40625 0.0625 2.6875 0.0625 C 1.96875 0.0625 1.410156 -0.15625 1.015625 -0.59375 C 0.617188 -1.039062 0.421875 -1.671875 0.421875 -2.484375 C 0.421875 -3.285156 0.617188 -3.90625 1.015625 -4.34375 C 1.410156 -4.78125 1.972656 -5 2.703125 -5 C 3.410156 -5 3.960938 -4.773438 4.359375 -4.328125 C 4.753906 -3.878906 4.953125 -3.257812 4.953125 -2.46875 Z M 1.03125 -2.46875 C 1.03125 -1.800781 1.171875 -1.296875 1.453125 -0.953125 C 1.734375 -0.609375 2.144531 -0.4375 2.6875 -0.4375 C 3.238281 -0.4375 3.648438 -0.609375 3.921875 -0.953125 C 4.203125 -1.296875 4.34375 -1.800781 4.34375 -2.46875 C 4.34375 -3.132812 4.203125 -3.640625 3.921875 -3.984375 C 3.648438 -4.328125 3.242188 -4.5 2.703125 -4.5 C 2.148438 -4.5 1.734375 -4.320312 1.453125 -3.96875 C 1.171875 -3.625 1.03125 -3.125 1.03125 -2.46875 Z M 1.03125 -2.46875 "/></g></g></g><g fill="#272a76" fill-opacity="1"><g transform="translate(188.859795, 267.428548)"><g><path d="M 4.953125 -2.46875 C 4.953125 -1.675781 4.753906 -1.054688 4.359375 -0.609375 C 3.960938 -0.160156 3.40625 0.0625 2.6875 0.0625 C 1.96875 0.0625 1.410156 -0.15625 1.015625 -0.59375 C 0.617188 -1.039062 0.421875 -1.671875 0.421875 -2.484375 C 0.421875 -3.285156 0.617188 -3.90625 1.015625 -4.34375 C 1.410156 -4.78125 1.972656 -5 2.703125 -5 C 3.410156 -5 3.960938 -4.773438 4.359375 -4.328125 C 4.753906 -3.878906 4.953125 -3.257812 4.953125 -2.46875 Z M 1.03125 -2.46875 C 1.03125 -1.800781 1.171875 -1.296875 1.453125 -0.953125 C 1.734375 -0.609375 2.144531 -0.4375 2.6875 -0.4375 C 3.238281 -0.4375 3.648438 -0.609375 3.921875 -0.953125 C 4.203125 -1.296875 4.34375 -1.800781 4.34375 -2.46875 C 4.34375 -3.132812 4.203125 -3.640625 3.921875 -3.984375 C 3.648438 -4.328125 3.242188 -4.5 2.703125 -4.5 C 2.148438 -4.5 1.734375 -4.320312 1.453125 -3.96875 C 1.171875 -3.625 1.03125 -3.125 1.03125 -2.46875 Z M 1.03125 -2.46875 "/></g></g></g><g fill="#272a76" fill-opacity="1"><g transform="translate(198.405891, 267.428548)"><g><path d="M 2.1875 0 L 1.625 0 L 1.625 -4.421875 L 0.0625 -4.421875 L 0.0625 -4.9375 L 3.75 -4.9375 L 3.75 -4.421875 L 2.1875 -4.421875 Z M 2.1875 0 "/></g></g></g><g fill="#272a76" fill-opacity="1"><g transform="translate(206.394674, 267.428548)"><g><path d="M 3.453125 -1.3125 C 3.453125 -0.875 3.296875 -0.535156 2.984375 -0.296875 C 2.671875 -0.0546875 2.242188 0.0625 1.703125 0.0625 C 1.117188 0.0625 0.671875 -0.0078125 0.359375 -0.15625 L 0.359375 -0.71875 C 0.554688 -0.625 0.773438 -0.550781 1.015625 -0.5 C 1.253906 -0.457031 1.492188 -0.4375 1.734375 -0.4375 C 2.109375 -0.4375 2.390625 -0.507812 2.578125 -0.65625 C 2.773438 -0.800781 2.875 -1.003906 2.875 -1.265625 C 2.875 -1.429688 2.835938 -1.566406 2.765625 -1.671875 C 2.703125 -1.785156 2.585938 -1.890625 2.421875 -1.984375 C 2.265625 -2.078125 2.023438 -2.179688 1.703125 -2.296875 C 1.242188 -2.460938 0.914062 -2.65625 0.71875 -2.875 C 0.519531 -3.101562 0.421875 -3.394531 0.421875 -3.75 C 0.421875 -4.132812 0.5625 -4.4375 0.84375 -4.65625 C 1.132812 -4.882812 1.515625 -5 1.984375 -5 C 2.472656 -5 2.921875 -4.910156 3.328125 -4.734375 L 3.15625 -4.234375 C 2.75 -4.398438 2.351562 -4.484375 1.96875 -4.484375 C 1.664062 -4.484375 1.425781 -4.414062 1.25 -4.28125 C 1.082031 -4.15625 1 -3.976562 1 -3.75 C 1 -3.582031 1.03125 -3.441406 1.09375 -3.328125 C 1.15625 -3.222656 1.257812 -3.125 1.40625 -3.03125 C 1.5625 -2.9375 1.789062 -2.835938 2.09375 -2.734375 C 2.613281 -2.546875 2.96875 -2.34375 3.15625 -2.125 C 3.351562 -1.914062 3.453125 -1.644531 3.453125 -1.3125 Z M 3.453125 -1.3125 "/></g></g></g></svg>